<svg xmlns="http://www.w3.org/2000/svg" viewBox="0 0 300 76" width="300" height="76">
  <defs>
    <filter id="glow" x="-50%" y="-50%" width="200%" height="200%">
      <feGaussianBlur in="SourceGraphic" stdDeviation="2.5" result="blur"/>
      <feMerge>
        <feMergeNode in="blur"/>
        <feMergeNode in="SourceGraphic"/>
      </feMerge>
    </filter>
  </defs>
  <!-- Text "vibe_lights" converted to paths (Prompt Medium, 48px) with i-dots removed -->
  <path fill="#222222" d="M27.42 57L17.92 33.96L24.02 33.96L30.26 49.90L36.50 33.96L42.59 33.96L33.09 57L27.42 57ZM47.73 57.00L47.73 33.96L53.87 33.96L53.87 57.00L47.73 57.00ZM74.99 57.72Q72.06 57.72 69.95 56.93Q67.84 56.14 65.87 54.31L65.87 54.31L65.87 57L60.02 57L60.02 21.53L66.06 21.53L66.06 36.22Q67.70 34.73 70.02 33.98Q72.35 33.24 74.99 33.24L74.99 33.24Q78.50 33.24 81.26 34.80Q84.02 36.36 85.58 39.14Q87.14 41.93 87.14 45.53L87.14 45.53Q87.14 49.18 85.58 51.94Q84.02 54.70 81.26 56.21Q78.50 57.72 74.99 57.72L74.99 57.72ZM73.50 52.97Q76.77 52.97 78.88 50.90Q80.99 48.84 80.99 45.53L80.99 45.53Q80.99 42.22 78.88 40.10Q76.77 37.99 73.50 37.99L73.50 37.99Q70.91 37.99 68.87 39.41Q66.83 40.82 66.06 43.18L66.06 43.18L66.06 47.83Q66.88 50.18 68.90 51.58Q70.91 52.97 73.50 52.97L73.50 52.97ZM104.90 57.72Q98.46 57.72 94.72 54.50Q90.98 51.29 90.98 45.53L90.98 45.53Q90.98 39.86 94.29 36.55Q97.60 33.24 103.74 33.24L103.74 33.24Q107.78 33.24 110.63 34.78Q113.49 36.31 114.93 38.98Q116.37 41.64 116.37 45.05L116.37 45.05L116.37 47.83L96.74 47.83Q97.36 52.97 105.66 52.97L105.66 52.97Q107.87 52.97 110.18 52.58Q112.48 52.20 114.21 51.53L114.21 51.53L114.21 56.18Q112.58 56.86 110.01 57.29Q107.44 57.72 104.90 57.72L104.90 57.72ZM96.74 43.70L110.66 43.70Q110.56 40.97 108.71 39.48Q106.86 37.99 103.65 37.99L103.65 37.99Q100.48 37.99 98.66 39.53Q96.83 41.06 96.74 43.70L96.74 43.70ZM120.21 62.33L120.21 57L139.79 57L139.79 62.33L120.21 62.33ZM144.59 57L144.59 21.53L150.64 21.53L150.64 57L144.59 57ZM156.74 57.00L156.74 33.96L162.88 33.96L162.88 57.00L156.74 57.00ZM181.22 68.04Q178.91 68.04 176.61 67.61Q174.30 67.18 172.77 66.46L172.77 66.46L172.77 61.66Q176.51 63.29 181.22 63.29L181.22 63.29Q185.44 63.29 187.29 61.51Q189.14 59.74 189.14 56.23L189.14 56.23L189.14 54.74Q187.50 56.23 185.25 56.98Q182.99 57.72 180.40 57.72L180.40 57.72Q176.90 57.72 174.06 56.16Q171.23 54.60 169.65 51.82Q168.06 49.03 168.06 45.43L168.06 45.43Q168.06 41.78 169.62 39.02Q171.18 36.26 173.94 34.75Q176.70 33.24 180.21 33.24L180.21 33.24Q183.14 33.24 185.25 34.03Q187.36 34.82 189.33 36.65L189.33 36.65L189.33 33.96L195.18 33.96L195.18 55.61Q195.18 61.56 191.75 64.80Q188.32 68.04 181.22 68.04L181.22 68.04ZM181.70 52.97Q184.29 52.97 186.33 51.55Q188.37 50.14 189.14 47.78L189.14 47.78L189.14 43.13Q188.32 40.78 186.30 39.38Q184.29 37.99 181.70 37.99L181.70 37.99Q178.43 37.99 176.32 40.06Q174.21 42.12 174.21 45.43L174.21 45.43Q174.21 48.74 176.32 50.86Q178.43 52.97 181.70 52.97L181.70 52.97ZM200.94 57L200.94 21.53L206.99 21.53L206.99 36.89Q210.26 33.24 215.44 33.24L215.44 33.24Q220.10 33.24 222.40 35.76Q224.70 38.28 224.70 42.46L224.70 42.46L224.70 57L218.66 57L218.66 43.03Q218.66 37.99 213.95 37.99L213.95 37.99Q211.89 37.99 210.06 38.98Q208.24 39.96 206.99 41.93L206.99 41.93L206.99 57L200.94 57ZM239.49 57.72Q235.70 57.72 233.73 55.61Q231.76 53.50 231.76 49.66L231.76 49.66L231.76 38.57L228.30 38.57L228.30 33.96L231.76 33.96L231.76 27.05L237.81 27.05L237.81 33.96L243.33 33.96L243.33 38.57L237.81 38.57L237.81 48.89Q237.81 51.10 238.62 52.03Q239.44 52.97 241.60 52.97L241.60 52.97Q243.09 52.97 244.53 52.30L244.53 52.30L244.53 56.90Q242.46 57.72 239.49 57.72L239.49 57.72ZM256.86 57.72Q254.37 57.72 251.54 57.14Q248.70 56.57 247.12 55.56L247.12 55.56L247.12 50.42Q248.99 51.58 251.58 52.27Q254.18 52.97 256.48 52.97L256.48 52.97Q258.78 52.97 259.84 52.56Q260.90 52.15 260.90 51.05L260.90 51.05Q260.90 50.18 260.34 49.63Q259.79 49.08 258.57 48.62Q257.34 48.17 254.80 47.50L254.80 47.50Q251.92 46.68 250.26 45.82Q248.61 44.95 247.77 43.63Q246.93 42.31 246.93 40.20L246.93 40.20Q246.93 36.74 249.66 34.99Q252.40 33.24 257.06 33.24L257.06 33.24Q259.46 33.24 261.83 33.70Q264.21 34.15 265.55 34.97L265.55 34.97L265.55 39.91Q264.11 39.05 262.05 38.52Q259.98 37.99 257.82 37.99L257.82 37.99Q255.47 37.99 254.27 38.45Q253.07 38.90 253.07 40.20L253.07 40.20Q253.07 41.06 253.72 41.57Q254.37 42.07 255.42 42.43Q256.48 42.79 259.26 43.51L259.26 43.51Q262.24 44.33 263.92 45.29Q265.60 46.25 266.32 47.59Q267.04 48.94 267.04 50.95L267.04 50.95Q267.04 54.02 264.42 55.87Q261.81 57.72 256.86 57.72L256.86 57.72Z"/>
  <!-- Branded blue dots over the i's -->
  <circle cx="50.8" cy="26.5" r="4.5" fill="#3B82F6" filter="url(#glow)"/>
  <circle cx="159.8" cy="26.5" r="4.5" fill="#3B82F6" filter="url(#glow)"/>
</svg>
